# xmcd CD database file
# Copyright (C) 1996 Ti Kan
#
# Track frame offsets:
#  150
#  9867
#  21145
#  33772
#  46770
#  59442
#  70862
#  82927
#  93205
#  105352
#  115822
#  127937
#
# Disc length: 1840 seconds
#
# Revision: 1
# Processed by: cddbd v1.4b41PL1 Copyright (c) Steve Scherf et al.
# Submitted via: CDWizzard Release:4.10
#
DISCID=7d072e0c
DTITLE=Bob Wills - American Legends: Bob Wills
DYEAR=1900
DGENRE=
TTITLE0=Across the Alley from the Alamo
TTITLE1=I Laugh When I Think How I Cried Over You
TTITLE2=New San Antonio Rose
TTITLE3=Faded Love
TTITLE4=When You Leave Amarillo (Turn Off the Lights)
TTITLE5=Elmer's Tune
TTITLE6=Bottle Baby Boogie
TTITLE7=Bubbles in My Beer
TTITLE8=Big Balls in Cow Town
TTITLE9=Stay All Night, Stay a Little Longer
TTITLE10=Keeper of My Heart
TTITLE11=South of the Border
EXTD=
EXTT0=Bob Wills
EXTT1=Bob Wills
EXTT2=Bob Wills
EXTT3=Bob Wills
EXTT4=Bob Wills
EXTT5=Bob Wills
EXTT6=Bob Wills
EXTT7=Bob Wills
EXTT8=Bob Wills
EXTT9=Bob Wills
EXTT10=Bob Wills
EXTT11=Bob Wills
PLAYORDER=
